<svg width="24" height="24" viewBox="0 0 24 24" fill="none" stroke="currentColor" stroke-width="2" stroke-linecap="round" stroke-linejoin="round" xmlns="http://www.w3.org/2000/svg">
  <path d="M9 19c-4.3 1.4-4.3-2.4-6-3m12 3v-2.3c0-.8-.3-1.5-.9-2 
           3-.3 6.2-1.5 6.2-6A4.6 4.6 0 0 0 18 4.8a4.2 4.2 0 0 0-.1-3S16.5 
           1.5 12 4a16.5 16.5 0 0 0-7 0C.5 1.5.1 1.8.1 1.8A4.2 4.2 0 0 0 
           0 4.8a4.6 4.6 0 0 0-1.3 3.5c0 4.5 3.2 5.7 6.2 6a2.6 2.6 0 0 0-.9 
           2V22"></path>
</svg>
